<svg xmlns="http://www.w3.org/2000/svg" xmlns:xlink="http://www.w3.org/1999/xlink" viewBox="0 0 1628.5 1524"><defs><style>.cls-1{fill:none;}.cls-2{clip-path:url(#clip-path);}.cls-3{fill:#fff;}.cls-4{fill:#dcf2e3;}</style><clipPath id="clip-path" transform="translate(97 61)"><rect class="cls-1" width="1440" height="390"/></clipPath></defs><g id="Layer_2" data-name="Layer 2"><g id="Layer_2-2" data-name="Layer 2"><g class="cls-2"><rect class="cls-3" x="25" width="1579" height="372"/><path class="cls-4" d="M-84,228.46c45.56-23.56,78.57-22.68,100.64-17.14,37.68,9.45,49.55,34,95.79,40.51,12.24,1.71,38,5,66.29-6.24,39-15.51,35.95-40.12,71.6-57.12,33.8-16.12,77.05-13.34,108.38,4.67,30.72,17.66,44.64,37.12,71.68,47.78,24.3,9.58,50.32,1.51,74-6.26,23.11-7.58,42.42-24.38,62.94-38.21l13.7-9.23c15.44-10.41,31-20.87,47.81-28.62,14.93-6.9,34.2-15.45,50.65-13.92,44.52,4.13,47.66,41.48,93.38,44.66,32.19,2.24,52.14-12.62,83.7-41,59-53.09,147.48-48.69,186.27-17.66,85.28,68.23,121,98.6,185.79,153.59,45.64,38.72,111.2,27.35,302.88-135V1463H-97Z" transform="translate(97 61)"/></g></g></g></svg>