<svg xmlns="http://www.w3.org/2000/svg" viewBox="0 0 1338.45 157.2"><defs><style>.cls-1{fill:#fff;}.cls-2{fill:#dcf2e3;}</style></defs><g id="Layer_2" data-name="Layer 2"><g id="Layer_2-2" data-name="Layer 2"><rect class="cls-1" width="1338" height="110.21"/><path class="cls-2" d="M0,57.21c0-2.15,36.35.91,39.11,1.1a353.9,353.9,0,0,1,74.64,13.21C139,78.77,164,87.23,190,91.31c44.32,7,90-3.66,129.69-23.92C349,52.42,377.93,33.57,411,28.25c74.59-12,138.73,27.64,203.66,56.58,54.17,24.15,117.37,28.83,172.68,5.86,52.85-22,97-61.34,152.73-76.86,62.84-17.52,118.48-4.38,177.82,17.36,75.1,27.52,141.83,70.34,220.53,28.43V157.2H0Z"/></g></g></svg>