<svg xmlns="http://www.w3.org/2000/svg" xmlns:xlink="http://www.w3.org/1999/xlink" viewBox="0 0 771.52 124.72"><defs><style>.cls-1{fill:none;}.cls-2{clip-path:url(#clip-path);}.cls-3{fill:#dcf2e3;}</style><clipPath id="clip-path" transform="translate(68.61 -2.83)"><rect class="cls-1" width="600" height="76"/></clipPath></defs><g id="Layer_2" data-name="Layer 2"><g id="Layer_4" data-name="Layer 4"><g class="cls-2"><path class="cls-3" d="M140,123c11,0,24-5,36-5,77-3,154,3,232-3,50-4,98-6,149,6,18,4,35,0,53,1,3,0,6,3,9,3,27.86.38,55.87.47,83.91.44L700,6.59C626.82,35.23,543.44,75.07,463.79,74.66c-86.47-.44-167.22-38.34-248.2-63.88C176.82-1.45,89.1-1.13,31.22,22.88,2.06,35-17,41.71-45.82,42.32c-.06.23-.1.45-.18.68-5,20-10,38-15,58-1,2-3,2-4,4-1,3,1,6,0,9-2.52,3.15-3.06,6.31-3.61,9.46A33.79,33.79,0,0,0-65,124C4,131,72,126,140,123Z" transform="translate(68.61 -2.83)"/></g></g></g></svg>