<svg xmlns="http://www.w3.org/2000/svg" viewBox="0 0 1338.45 226"><defs><style>.cls-1{fill:#fff;}.cls-2{fill:#dcf2e3;}</style></defs><g id="Layer_2" data-name="Layer 2"><g id="Layer_2-2" data-name="Layer 2"><rect class="cls-1" width="1338" height="226"/><path class="cls-2" d="M0,112c0-2.16,36.35.91,39.11,1.09a353.9,353.9,0,0,1,74.64,13.21C139,133.55,164,142,190,146.09c44.32,7,90-3.65,129.69-23.91C349,107.2,377.93,88.35,411,83c74.59-12,138.73,27.65,203.66,56.59,54.17,24.14,117.37,28.83,172.68,5.86,52.85-21.95,97-61.34,152.73-76.87,62.84-17.51,118.48-4.37,177.82,17.37,75.1,27.51,141.83,70.33,220.53,28.43V226H0Z"/></g></g></svg>